<svg xmlns="http://www.w3.org/2000/svg" width="480" height="270" fill="none" xmlns:v="https://vecta.io/nano"><g clip-path="url(#A)"><path fill="#cf542e" d="M0 0h480v270H0z"/><g fill-rule="evenodd"><g fill="#e2632c"><path d="M354.822 198.178h12.732c5.008 0 9.068-4.062 9.068-9.073v-12.738c0-7.83 6.352-15.258 14.183-15.239.479.001.863.415.863.895v31.857a19.35 19.35 0 0 1-19.339 19.35l-31.844.002c-.479 0-.893-.385-.894-.864-.019-7.834 7.405-14.19 15.231-14.19zm81.262-185.907h10.929a7.79 7.79 0 0 0 7.785-7.789V-6.453c0-6.722 5.454-13.099 12.176-13.082.411.001.741.357.741.768V8.58c0 9.174-7.433 16.611-16.602 16.612l-27.338.002c-.411 0-.766-.33-.767-.742-.017-6.725 6.357-12.181 13.076-12.181zm12.026 100.068c6.386 0 11.788-4.212 13.585-10.01l-14.851.001c-8.841 0-16.748 3.986-22.037 10.255 1.101-.161 2.217-.246 3.338-.246h19.965zm-30.099 66.335c0 .715.574 1.332 1.288 1.334 11.674.029 21.145-11.046 21.145-22.72v-18.99a13.62 13.62 0 0 1 .208-2.353l-22.641.001v42.728z"/><path d="M485.927 55.641c0-.752-.604-1.401-1.355-1.403-12.279-.03-22.241 11.619-22.241 23.898V98.11c0 1.469-.223 2.886-.636 4.219l24.232-.002V55.641zm-61.12 56.944c-10.964 1.596-20.575 10.844-20.548 22.007.002.752.651 1.355 1.402 1.355l12.35-.001v-4.767c0-7.086 2.559-13.572 6.796-18.594zm29.157 12.186c-6.664 0-12.198 4.825-13.312 11.174l14.947-.001c10.005-.001 18.875-4.85 24.399-12.326-2.265.744-4.645 1.153-7.053 1.153h-18.981z"/></g><path d="M485.927 102.327l-24.232.002c-1.797 5.798-7.199 10.01-13.585 10.01h-19.966c-1.12 0-2.236.085-3.337.246a28.73 28.73 0 0 0-6.796 18.594v4.767l22.641-.001c1.114-6.349 6.648-11.174 13.312-11.174h18.981c2.408 0 4.788-.409 7.053-1.153 3.724-5.039 5.929-11.271 5.929-18.019v-3.272z" fill="#e67930"/><g fill="#e2632c"><path d="M234.219 38.133v7.775a5.54 5.54 0 0 0 5.535 5.538h7.771c4.776 0 9.308 3.879 9.296 8.661-.001.293-.253.527-.545.527h-19.435a11.81 11.81 0 0 1-11.805-11.81l-.001-19.447c0-.292.235-.545.527-.546 4.779-.012 8.657 4.522 8.657 9.301zm165.865 18.132h-7.711a5.46 5.46 0 0 1-2.051-.4 26.89 26.89 0 0 1-4.039 9.073 11.7 11.7 0 0 0 3.199.446h19.286a.54.54 0 0 0 .542-.523c.011-4.746-4.486-8.595-9.226-8.595zm-53.229-.66V49.71c0-.453-.363-.843-.816-.845-4.94-.012-9.254 3.118-11.574 7.402 1.684-.43 3.424-.662 5.179-.662h7.211zM324.09 83.841h-12.019c-7.388 0-14.397 6-14.378 13.395.001.453.392.816.843.816l30.062-.002c10.083-.001 18.257-8.179 18.257-18.267V76.61l-14.319.001c-.642 4.094-4.173 7.23-8.446 7.23z"/><path d="M377.767 53.663l-.002-19.298a.54.54 0 0 1 .524-.541c4.743-.012 8.59 4.487 8.59 9.23v7.715c0 2.309 1.426 4.282 3.442 5.095a27.05 27.05 0 0 0 .737-6.257V5.155c0-.669-.537-1.246-1.205-1.248-10.927-.027-19.791 10.338-19.791 21.263v17.774a12.66 12.66 0 0 1-12.654 12.66h-10.553v21.004l17.217-.001c9.213-.001 17.342-4.622 22.211-11.671-4.914-1.393-8.516-5.911-8.516-11.274zm-45.116 9.588c0-2.451.662-4.859 1.814-6.984-8.802 2.245-16.097 9.964-16.074 19.139.002.669.58 1.206 1.248 1.206h12.897c.069-.436.115-.88.115-1.335V63.251z"/></g><g fill="#e67930"><path d="M386.879 50.769v-7.715c0-4.742-3.847-9.242-8.59-9.23a.54.54 0 0 0-.524.541l.002 19.298c0 5.363 3.602 9.881 8.516 11.274 1.87-2.707 3.255-5.773 4.038-9.073-2.016-.814-3.442-2.786-3.442-5.096zm-47.235 4.836c-1.755 0-3.495.232-5.179.662-1.152 2.125-1.814 4.533-1.814 6.984v12.024c0 .455-.046.899-.115 1.335l14.319-.001V55.605h-7.211z"/></g><g fill="#e2632c"><path d="M299.432 127.52c0-.39-.313-.727-.703-.728-6.374-.015-11.544 6.031-11.544 12.404v7.02a30.45 30.45 0 0 1 12.247-4.503V127.52zm-29.992 29.429c-6.37 0-12.413 5.174-12.397 11.55.001.391.338.704.727.704l15.346-.001c.415-4.426 1.771-8.575 3.863-12.253h-7.539z"/><path d="M354.129 141.415l-50.49.003c-1.428 0-2.831.106-4.207.295v11.738a15.75 15.75 0 0 1-15.742 15.75l-10.574.001a31.17 31.17 0 0 0-.14 2.897v50.51c0 .76.61 1.416 1.37 1.418 12.415.03 22.487-11.747 22.487-24.162v-20.196c0-7.944 6.437-14.385 14.378-14.385h20.186c12.409 0 24.18-10.078 24.15-22.499-.002-.76-.659-1.37-1.418-1.37zm-66.944 8.149v-3.348c-4.216 2.689-7.728 6.376-10.206 10.733h2.824c4.077 0 7.382-3.306 7.382-7.385z"/></g><path d="M299.432 153.451v-11.738a30.45 30.45 0 0 0-12.247 4.503v3.348c0 4.079-3.305 7.385-7.382 7.385h-2.824c-2.092 3.678-3.448 7.827-3.863 12.253l10.574-.001a15.75 15.75 0 0 0 15.742-15.75z" fill="#e67930"/></g></g><defs><clipPath id="A"><path fill="#fff" d="M0 0h480v270H0z"/></clipPath></defs></svg>