<svg xmlns="http://www.w3.org/2000/svg" width="480" height="270" fill="none" xmlns:v="https://vecta.io/nano"><g clip-path="url(#A)"><path fill="#b5b6b2" d="M0 0h480v270H0z"/><g fill-rule="evenodd"><g fill="#c7c7c2"><path d="M354.213 174.367h-10.266c-4.039 0-7.313 3.274-7.313 7.313v10.267c0 6.311-5.123 12.298-11.437 12.282-.387 0-.697-.334-.697-.72v-25.678a15.6 15.6 0 0 1 15.596-15.597l25.679-.001c.387 0 .72.31.721.696.016 6.314-5.972 11.438-12.283 11.438zm82.923-161.431h10.668a7.6 7.6 0 0 0 7.6-7.6V-5.332c0-6.557 5.323-12.779 11.885-12.763.401.001.723.348.723.749V9.336a16.21 16.21 0 0 1-16.206 16.207l-26.684.002c-.402 0-.748-.322-.749-.724-.017-6.561 6.205-11.885 12.763-11.885zm33.923 99.487c-.002-.777-.673-1.402-1.45-1.402l-9.134.001v3.558c0 7.339-2.399 14.117-6.451 19.598 9.477-3.108 17.06-11.674 17.035-21.755zm-51.735 9.488c6.95 0 12.829-4.58 14.784-10.887l-16.16.001c-9.621.001-18.224 4.336-23.979 11.153 1.198-.174 2.412-.267 3.632-.267h21.723zm-32.75 72.145c0 .777.624 1.448 1.401 1.45 12.703.031 23.008-12.013 23.008-24.709v-20.653a14.79 14.79 0 0 1 .227-2.56l-24.636.002v46.47z"/><path d="M460.475 60.247c0-.818-.656-1.523-1.474-1.526-13.361-.033-24.201 12.636-24.201 25.991v21.724a15.45 15.45 0 0 1-.692 4.588l26.367-.002V60.247zm-66.506 61.931c-11.931 1.736-22.389 11.794-22.359 23.935.002.817.708 1.474 1.525 1.474l13.439-.001v-5.185a31.24 31.24 0 0 1 7.395-20.223zm31.727 13.254c-7.252 0-13.274 5.248-14.486 12.152h16.264c10.887-.001 20.539-5.275 26.55-13.405-2.465.808-5.055 1.253-7.675 1.253h-20.653z"/></g><path d="M460.475 111.022l-26.367.002c-1.955 6.307-7.834 10.887-14.784 10.887H397.6c-1.22 0-2.433.093-3.632.267a31.24 31.24 0 0 0-7.394 20.223v5.185l24.636-.002c1.212-6.904 7.234-12.152 14.486-12.152h20.653c2.62 0 5.21-.445 7.675-1.253 4.052-5.481 6.451-12.259 6.451-19.598v-3.559z" fill="#dadbd5"/><g fill="#c7c7c2"><path d="M457.44 226.889h-27.32c-10.748 0-19.461 8.713-19.461 19.461v27.319c0 16.794-13.631 32.726-30.434 32.685-1.028-.003-1.854-.891-1.854-1.919v-68.327c0-22.92 18.58-41.502 41.5-41.503l68.335-.005c1.028 0 1.916.826 1.918 1.854.042 16.803-15.89 30.435-32.684 30.435zM287.797 121.43v7.774a5.54 5.54 0 0 0 5.537 5.537h7.774c4.778 0 9.312 3.879 9.3 8.66-.001.293-.253.528-.546.528H290.42a11.81 11.81 0 0 1-11.809-11.809l-.002-19.444c0-.293.235-.545.528-.546 4.781-.012 8.66 4.521 8.66 9.3zm117.736-61.579h-7.419a5.26 5.26 0 0 1-1.973-.384 25.84 25.84 0 0 1-3.886 8.723c.979.278 2.01.429 3.078.429h18.554c.28 0 .521-.224.521-.504.011-4.563-4.315-8.264-8.875-8.264zm-51.21-.634v-5.669c0-.435-.35-.811-.785-.812-4.753-.012-8.904 2.999-11.136 7.118a20.17 20.17 0 0 1 4.983-.636h6.938zm-21.902 27.151h-11.563c-7.108 0-13.851 5.77-13.833 12.881.001.435.376.785.811.785l28.922-.002a17.57 17.57 0 0 0 17.565-17.566v-3.052l-13.776.001c-.618 3.938-4.015 6.953-8.126 6.953z"/><path d="M384.062 57.35l-.001-18.557c0-.279.224-.52.503-.52 4.563-.011 8.265 4.315 8.265 8.876v7.419c0 2.221 1.371 4.118 3.312 4.9a26.05 26.05 0 0 0 .708-6.017V10.706c0-.643-.516-1.198-1.16-1.2-10.511-.026-19.039 9.941-19.039 20.446v17.09c0 6.724-5.45 12.175-12.174 12.175h-10.153v20.197l16.564-.001c8.863-.001 16.684-4.444 21.368-11.223-4.727-1.339-8.192-5.684-8.193-10.84zm-43.405 9.219c0-2.358.637-4.672 1.745-6.716-8.467 2.158-15.485 9.581-15.464 18.404.002.643.558 1.159 1.2 1.159l12.409-.001c.066-.419.11-.846.11-1.284V66.569z"/></g><g fill="#dadbd5"><path d="M392.829 54.567v-7.419c0-4.56-3.702-8.887-8.265-8.876-.279.001-.503.242-.503.52l.001 18.557c.001 5.157 3.466 9.502 8.193 10.84a25.84 25.84 0 0 0 3.886-8.723c-1.941-.783-3.312-2.68-3.312-4.9zm-45.444 4.65a20.17 20.17 0 0 0-4.983.636c-1.108 2.044-1.745 4.358-1.745 6.716v11.563c0 .438-.044.864-.11 1.284l13.776-.001V59.217h-6.938z"/></g><g fill="#c7c7c2"><path d="M226.677 158.077c0-.513-.412-.955-.925-.957-8.377-.02-15.173 7.923-15.173 16.295v9.222a40.05 40.05 0 0 1 16.098-5.915v-18.645zm-39.42 38.661c-8.372 0-16.315 6.796-16.295 15.173.002.513.444.924.957.924l20.17-.001a40.03 40.03 0 0 1 5.077-16.096h-9.909z"/><path d="M298.568 176.33l-66.361.004a40.5 40.5 0 0 0-5.53.388v15.419c0 11.427-9.263 20.691-20.69 20.692l-13.899.001a40.89 40.89 0 0 0-.184 3.805v66.355c0 .998.802 1.86 1.801 1.863 16.317.04 29.555-15.432 29.555-31.741v-26.531c0-10.437 8.462-18.899 18.899-18.899h26.531c16.31 0 31.782-13.239 31.741-29.556-.002-.998-.864-1.8-1.863-1.8zm-87.988 10.705v-4.398c-5.54 3.532-10.156 8.377-13.414 14.101h3.712c5.358 0 9.702-4.344 9.702-9.703z"/></g><path d="M226.677 192.142v-15.42c-5.863.806-11.321 2.871-16.097 5.916v4.398c0 5.358-4.344 9.702-9.702 9.702h-3.712a40.03 40.03 0 0 0-5.077 16.096l13.898-.001c11.427 0 20.69-9.264 20.69-20.691z" fill="#dadbd5"/></g></g><defs><clipPath id="A"><path fill="#fff" d="M0 0h480v270H0z"/></clipPath></defs></svg>